<?xml version="1.0" standalone="no"?>
<!DOCTYPE svg PUBLIC "-//W3C//DTD SVG 20010904//EN"
 "http://www.w3.org/TR/2001/REC-SVG-20010904/DTD/svg10.dtd">
<svg version="1.0" xmlns="http://www.w3.org/2000/svg"
 width="700.000000pt" height="700.000000pt" viewBox="0 0 700.000000 700.000000"
 preserveAspectRatio="xMidYMid meet">
<metadata>
Created by potrace 1.14, written by Peter Selinger 2001-2017
</metadata>
<g transform="translate(0.000000,700.000000) scale(0.100000,-0.100000)"
fill="#000000" stroke="none">
<path d="M3050 6990 c-848 -44 -1563 -197 -2050 -440 -219 -109 -349 -200
-477 -333 -88 -91 -135 -165 -176 -272 l-27 -70 0 -2376 c0 -2332 0 -2377 20
-2433 79 -230 275 -418 610 -588 476 -241 1151 -397 1985 -460 254 -19 929
-16 1195 6 581 46 1061 135 1480 275 402 134 670 281 855 466 93 94 138 159
184 267 l26 63 3 2390 2 2389 -27 71 c-45 118 -90 184 -202 295 -122 122 -231
198 -417 292 -162 82 -270 127 -454 188 -401 132 -884 218 -1470 260 -200 15
-848 20 -1060 10z m745 -250 c1154 -43 2121 -306 2496 -680 180 -180 180 -357
-2 -539 -351 -350 -1240 -609 -2314 -672 -295 -17 -960 -6 -1229 20 -980 97
-1717 335 -2040 658 -176 176 -175 351 2 531 363 367 1349 641 2454 681 316
12 340 12 633 1z m-3125 -1508 c349 -266 916 -464 1620 -566 822 -120 1825
-108 2610 30 632 111 1141 305 1456 555 34 27 65 49 69 49 3 0 5 -246 3 -547
l-3 -548 -33 -69 c-152 -321 -851 -617 -1772 -750 -821 -119 -1793 -98 -2563
55 -414 82 -835 221 -1066 351 -194 109 -330 232 -383 344 l-33 69 -3 548 c-2
301 -1 547 2 547 3 0 46 -31 96 -68z m156 -1635 c491 -294 1231 -474 2168
-528 228 -13 1011 -6 1201 10 1007 89 1718 300 2153 639 l83 64 -3 -554 -3
-553 -34 -69 c-63 -129 -224 -263 -456 -378 -968 -484 -2857 -591 -4209 -239
-584 152 -1002 383 -1118 618 l-33 68 -3 553 -3 553 98 -74 c54 -40 125 -90
159 -110z m-137 -1434 c371 -281 1045 -495 1836 -582 360 -40 491 -46 975 -46
481 0 610 6 971 45 804 88 1495 309 1862 598 32 26 68 53 78 61 19 14 20 5 17
-540 -3 -553 -3 -554 -26 -603 -134 -292 -696 -563 -1482 -715 -450 -87 -874
-124 -1420 -124 -351 0 -549 10 -830 39 -1071 110 -1902 431 -2072 800 -23 49
-23 50 -26 603 -3 541 -2 554 16 540 10 -8 56 -42 101 -76z"/>
</g>
</svg>
